<?xml version="1.0" encoding="UTF-8" standalone="no"?>
<!-- Created with Inkscape (http://www.inkscape.org/) -->

<svg
   width="297mm"
   height="210mm"
   viewBox="0 0 297 210"
   version="1.1"
   id="svg1"
   inkscape:export-filename="HTS.png"
   inkscape:export-xdpi="96"
   inkscape:export-ydpi="96"
   inkscape:version="1.4 (86a8ad7, 2024-10-11)"
   sodipodi:docname="drawing.svg"
   xmlns:inkscape="http://www.inkscape.org/namespaces/inkscape"
   xmlns:sodipodi="http://sodipodi.sourceforge.net/DTD/sodipodi-0.dtd"
   xmlns="http://www.w3.org/2000/svg"
   xmlns:svg="http://www.w3.org/2000/svg">
  <sodipodi:namedview
     id="namedview1"
     pagecolor="#505050"
     bordercolor="#ffffff"
     borderopacity="1"
     inkscape:showpageshadow="0"
     inkscape:pageopacity="0"
     inkscape:pagecheckerboard="1"
     inkscape:deskcolor="#505050"
     inkscape:document-units="mm"
     showgrid="true"
     inkscape:zoom="0.67882997"
     inkscape:cx="536.21675"
     inkscape:cy="386.69477"
     inkscape:window-width="1920"
     inkscape:window-height="1051"
     inkscape:window-x="-9"
     inkscape:window-y="-9"
     inkscape:window-maximized="1"
     inkscape:current-layer="layer1">
    <inkscape:grid
       id="grid4"
       units="mm"
       originx="0"
       originy="0"
       spacingx="1"
       spacingy="0.99999998"
       empcolor="#0099e5"
       empopacity="0.30196078"
       color="#0099e5"
       opacity="0.14901961"
       empspacing="5"
       enabled="true"
       visible="true" />
  </sodipodi:namedview>
  <defs
     id="defs1">
    <rect
       x="925.85777"
       y="266.63525"
       width="88.387377"
       height="38.301197"
       id="rect106" />
    <rect
       x="389.57905"
       y="504.16113"
       width="31.249657"
       height="45.83283"
       id="rect55" />
    <inkscape:path-effect
       effect="powerstroke"
       message=""
       id="path-effect44"
       is_visible="true"
       lpeversion="1.3"
       scale_width="1"
       interpolator_type="CentripetalCatmullRom"
       interpolator_beta="0.75"
       start_linecap_type="round"
       end_linecap_type="round"
       offset_points="17.014919,0.73080711"
       linejoin_type="spiro"
       miter_limit="4"
       not_jump="true"
       sort_points="true" />
    <inkscape:path-effect
       effect="simplify"
       id="path-effect43"
       is_visible="true"
       lpeversion="1.3"
       threshold="0.041538462"
       steps="1"
       smooth_angles="0"
       helper_size="0"
       simplify_individual_paths="false"
       simplify_just_coalesce="false"
       step="1" />
    <inkscape:path-effect
       effect="spiro"
       id="path-effect39"
       is_visible="true"
       lpeversion="1" />
    <inkscape:path-effect
       effect="simplify"
       id="path-effect38"
       is_visible="true"
       lpeversion="1.3"
       threshold="325.000000"
       steps="1"
       smooth_angles="360"
       helper_size="0"
       simplify_individual_paths="false"
       simplify_just_coalesce="false" />
    <inkscape:path-effect
       effect="spiro"
       id="path-effect37"
       is_visible="true"
       lpeversion="1" />
    <inkscape:path-effect
       effect="simplify"
       id="path-effect36"
       is_visible="true"
       lpeversion="1.3"
       threshold="325.000000"
       steps="1"
       smooth_angles="360"
       helper_size="0"
       simplify_individual_paths="false"
       simplify_just_coalesce="false" />
    <inkscape:path-effect
       effect="spiro"
       id="path-effect22"
       is_visible="true"
       lpeversion="1" />
    <inkscape:path-effect
       effect="simplify"
       id="path-effect21"
       is_visible="true"
       lpeversion="1.3"
       threshold="325.000000"
       steps="1"
       smooth_angles="360"
       helper_size="0"
       simplify_individual_paths="false"
       simplify_just_coalesce="false" />
    <inkscape:path-effect
       effect="simplify"
       id="path-effect18"
       is_visible="true"
       lpeversion="1.3"
       threshold="325.000000"
       steps="1"
       smooth_angles="360"
       helper_size="0"
       simplify_individual_paths="false"
       simplify_just_coalesce="false" />
    <inkscape:path-effect
       effect="powerstroke"
       message=""
       id="path-effect17"
       is_visible="true"
       lpeversion="1.3"
       scale_width="1"
       interpolator_type="CentripetalCatmullRom"
       interpolator_beta="0.75"
       start_linecap_type="round"
       end_linecap_type="round"
       offset_points="54.542607,0.73080711"
       linejoin_type="spiro"
       miter_limit="4"
       not_jump="true"
       sort_points="true" />
    <inkscape:path-effect
       effect="simplify"
       id="path-effect16"
       is_visible="true"
       lpeversion="1.3"
       threshold="0.012"
       steps="1"
       smooth_angles="0"
       helper_size="0"
       simplify_individual_paths="false"
       simplify_just_coalesce="false"
       step="1" />
    <inkscape:path-effect
       effect="powerstroke"
       message=""
       id="path-effect15"
       is_visible="true"
       lpeversion="1.3"
       scale_width="1"
       interpolator_type="CentripetalCatmullRom"
       interpolator_beta="0.75"
       start_linecap_type="round"
       end_linecap_type="round"
       offset_points="68.769551,0.73080711"
       linejoin_type="spiro"
       miter_limit="4"
       not_jump="true"
       sort_points="true" />
    <inkscape:path-effect
       effect="simplify"
       id="path-effect14"
       is_visible="true"
       lpeversion="1.3"
       threshold="0.012"
       steps="1"
       smooth_angles="0"
       helper_size="0"
       simplify_individual_paths="false"
       simplify_just_coalesce="false"
       step="1" />
    <linearGradient
       id="swatch4"
       inkscape:swatch="solid">
      <stop
         style="stop-color:#f5f5f5;stop-opacity:1;"
         offset="0"
         id="stop4" />
    </linearGradient>
  </defs>
  <g
     inkscape:label="Layer 1"
     inkscape:groupmode="layer"
     id="layer1">
    <path
       id="path1"
       style="fill:#ffffff;fill-opacity:0.954787;stroke:#000000;stroke-width:1.34021;stroke-dasharray:none;stroke-opacity:1"
       d="m 55.942107,59.251949 a 9.2260164,12.861453 0 0 0 0.268743,-3.009422 9.2260164,12.861453 0 0 0 -9.226015,-12.861689 9.2260164,12.861453 0 0 0 -9.226015,12.861689 9.2260164,12.861453 0 0 0 0.294669,3.189745 16.949501,18.307388 0 0 0 8.791497,2.686804 16.949501,18.307388 0 0 0 9.097121,-2.867127 z" />
    <path
       id="path4"
       style="fill:#f5f5f5;fill-opacity:0.954787;stroke:#000000;stroke-width:1.14426;stroke-dasharray:none;stroke-opacity:1"
       d="M 46.844986,25.504225 A 16.949501,18.307388 0 0 0 29.89551,43.81165 16.949501,18.307388 0 0 0 38.053489,59.432272 9.2260164,12.861453 0 0 1 37.75882,56.242527 9.2260164,12.861453 0 0 1 46.984835,43.380838 9.2260164,12.861453 0 0 1 56.21085,56.242527 9.2260164,12.861453 0 0 1 55.942107,59.251949 16.949501,18.307388 0 0 0 63.794463,43.81165 16.949501,18.307388 0 0 0 46.844986,25.504225 Z" />
    <ellipse
       style="fill:#f3f3f3;fill-opacity:1;stroke:#000000;stroke-width:1.35964;stroke-dasharray:none;stroke-opacity:1"
       id="path2"
       cx="46.978268"
       cy="38.194141"
       rx="5.2529011"
       ry="5.607832" />
    <rect
       style="fill:#ffffff;fill-opacity:0.954787;stroke:#000000;stroke-width:0.767753;stroke-dasharray:none;stroke-opacity:1"
       id="rect4"
       width="21.249468"
       height="27.037891"
       x="100.25322"
       y="42.406536" />
    <path
       style="fill:#ffffff;fill-opacity:0.954787;stroke:#000000;stroke-width:0.767024;stroke-dasharray:none;stroke-opacity:1"
       d="m 103.48347,45.868663 c 14.75307,0 14.75307,0 14.75307,0"
       id="path6" />
    <path
       style="fill:#ffffff;fill-opacity:0.954787;stroke:#000000;stroke-width:0.767024;stroke-dasharray:none;stroke-opacity:1"
       d="m 103.51936,49.875829 14.68128,0.07781"
       id="path7" />
    <path
       style="fill:#ffffff;fill-opacity:0.954787;stroke:#000000;stroke-width:0.767024;stroke-dasharray:none;stroke-opacity:1"
       d="m 103.48347,53.844091 14.75307,-0.0389"
       id="path8" />
    <path
       style="fill:#ffffff;fill-opacity:0.954787;stroke:#000000;stroke-width:0.767024;stroke-dasharray:none;stroke-opacity:1"
       d="m 103.48347,57.812352 14.75307,0.07781"
       id="path9" />
    <path
       style="fill:#ffffff;fill-opacity:0.954787;stroke:#000000;stroke-width:0.767024;stroke-dasharray:none;stroke-opacity:1"
       d="m 103.48347,61.819518 14.64538,0.07781"
       id="path10" />
    <path
       style="fill:#ffffff;fill-opacity:0.954787;stroke:#000000;stroke-width:0.767024;stroke-dasharray:none;stroke-opacity:1"
       d="m 103.48347,65.748875 9.11747,0.07781"
       id="path11" />
    <rect
       style="fill:#ffffff;fill-opacity:0.954787;stroke:#000000;stroke-width:0.343284;stroke-dasharray:none;stroke-opacity:1"
       id="rect4-7"
       width="8.7000895"
       height="13.20274"
       x="179.60719"
       y="-38.096287"
       transform="scale(1,-1)" />
    <path
       style="fill:#ffffff;fill-opacity:0.954787;stroke:#000000;stroke-width:0.342958;stroke-dasharray:none;stroke-opacity:1"
       d="m 180.92977,36.405707 c 6.04029,0 6.04029,0 6.04029,0"
       id="path6-6" />
    <path
       style="fill:#ffffff;fill-opacity:0.954787;stroke:#000000;stroke-width:0.342958;stroke-dasharray:none;stroke-opacity:1"
       d="m 180.94446,34.448986 6.0109,-0.03799"
       id="path7-1" />
    <path
       style="fill:#ffffff;fill-opacity:0.954787;stroke:#000000;stroke-width:0.342958;stroke-dasharray:none;stroke-opacity:1"
       d="m 180.92977,32.511265 6.04029,0.019"
       id="path8-8" />
    <path
       style="fill:#ffffff;fill-opacity:0.954787;stroke:#000000;stroke-width:0.342958;stroke-dasharray:none;stroke-opacity:1"
       d="m 180.92977,30.573543 6.04029,-0.03799"
       id="path9-9" />
    <path
       style="fill:#ffffff;fill-opacity:0.954787;stroke:#000000;stroke-width:0.342958;stroke-dasharray:none;stroke-opacity:1"
       d="m 180.92977,28.616824 5.9962,-0.03799"
       id="path10-2" />
    <path
       style="fill:#ffffff;fill-opacity:0.954787;stroke:#000000;stroke-width:0.342958;stroke-dasharray:none;stroke-opacity:1"
       d="m 180.92977,26.698098 3.73293,-0.03799"
       id="path11-7" />
    <rect
       style="fill:#ffffff;fill-opacity:0.954787;stroke:#000000;stroke-width:0.343284;stroke-dasharray:none;stroke-opacity:1"
       id="rect4-7-3"
       width="8.7000895"
       height="13.20274"
       x="167.78046"
       y="-38.125416"
       transform="scale(1,-1)" />
    <path
       style="fill:#ffffff;fill-opacity:0.954787;stroke:#000000;stroke-width:0.342958;stroke-dasharray:none;stroke-opacity:1"
       d="m 169.10303,36.434836 c 6.04029,0 6.04029,0 6.04029,0"
       id="path6-6-1" />
    <path
       style="fill:#ffffff;fill-opacity:0.954787;stroke:#000000;stroke-width:0.342958;stroke-dasharray:none;stroke-opacity:1"
       d="m 169.11773,34.478116 6.0109,-0.03799"
       id="path7-1-2" />
    <path
       style="fill:#ffffff;fill-opacity:0.954787;stroke:#000000;stroke-width:0.342958;stroke-dasharray:none;stroke-opacity:1"
       d="m 169.10303,32.540394 6.04029,0.019"
       id="path8-8-3" />
    <path
       style="fill:#ffffff;fill-opacity:0.954787;stroke:#000000;stroke-width:0.342958;stroke-dasharray:none;stroke-opacity:1"
       d="m 169.10303,30.602672 6.04029,-0.03799"
       id="path9-9-3" />
    <path
       style="fill:#ffffff;fill-opacity:0.954787;stroke:#000000;stroke-width:0.342958;stroke-dasharray:none;stroke-opacity:1"
       d="m 169.10303,28.645953 5.99621,-0.03799"
       id="path10-2-4" />
    <path
       style="fill:#ffffff;fill-opacity:0.954787;stroke:#000000;stroke-width:0.342958;stroke-dasharray:none;stroke-opacity:1"
       d="m 169.10303,26.727228 3.73293,-0.03799"
       id="path11-7-1" />
    <rect
       style="fill:#ffffff;fill-opacity:0.954787;stroke:#000000;stroke-width:0.343284;stroke-dasharray:none;stroke-opacity:1"
       id="rect4-7-3-7"
       width="8.7000895"
       height="13.20274"
       x="191.68243"
       y="-38.068424"
       transform="scale(1,-1)" />
    <path
       style="fill:#ffffff;fill-opacity:0.954787;stroke:#000000;stroke-width:0.342958;stroke-dasharray:none;stroke-opacity:1"
       d="m 193.00501,36.377848 c 6.04029,0 6.04029,0 6.04029,0"
       id="path6-6-1-4" />
    <path
       style="fill:#ffffff;fill-opacity:0.954787;stroke:#000000;stroke-width:0.342958;stroke-dasharray:none;stroke-opacity:1"
       d="m 193.01971,34.421127 6.0109,-0.03799"
       id="path7-1-2-2" />
    <path
       style="fill:#ffffff;fill-opacity:0.954787;stroke:#000000;stroke-width:0.342958;stroke-dasharray:none;stroke-opacity:1"
       d="m 193.00501,32.483405 6.04029,0.019"
       id="path8-8-3-7" />
    <path
       style="fill:#ffffff;fill-opacity:0.954787;stroke:#000000;stroke-width:0.342958;stroke-dasharray:none;stroke-opacity:1"
       d="m 193.00501,30.545684 6.04029,-0.03799"
       id="path9-9-3-7" />
    <path
       style="fill:#ffffff;fill-opacity:0.954787;stroke:#000000;stroke-width:0.342958;stroke-dasharray:none;stroke-opacity:1"
       d="m 193.00501,28.588965 5.9962,-0.03799"
       id="path10-2-4-9" />
    <path
       style="fill:#ffffff;fill-opacity:0.954787;stroke:#000000;stroke-width:0.342958;stroke-dasharray:none;stroke-opacity:1"
       d="m 193.00501,26.670239 3.73294,-0.03799"
       id="path11-7-1-3" />
    <ellipse
       style="fill:#ffffff;fill-opacity:1;stroke:#000000;stroke-width:0.767024;stroke-dasharray:none;stroke-opacity:1"
       id="path12"
       cx="118.12885"
       cy="69.8144"
       rx="7.322691"
       ry="7.9948802" />
    <path
       style="fill:#ffffff;fill-opacity:1;stroke:#000000;stroke-width:0.767024;stroke-dasharray:none;stroke-opacity:1"
       d="m 118.16475,76.175287 c 0,-12.760683 0,-12.760683 0,-12.760683"
       id="path32" />
    <path
       id="path39"
       style="fill:none;fill-opacity:1;stroke:#000000;stroke-width:0.552334;stroke-dasharray:none;stroke-opacity:1"
       d="m 119.85453,70.688396 c -0.66199,-0.524025 -1.57646,-0.872896 -2.07854,-0.978195 -1.55028,-0.325122 -2.55367,-1.121143 -2.55367,-2.492335 0,-1.371191 1.29201,-2.482761 2.88578,-2.482761 1.48102,0 2.72161,0.964553 2.87105,2.23223"
       sodipodi:nodetypes="csssc" />
    <path
       id="path35"
       style="fill:none;stroke:#000000;stroke-width:0.552334"
       d="m 115.17094,72.430952 c 0.14352,1.272326 1.38649,2.242937 2.8723,2.242929 1.59372,1.3e-5 2.80959,-0.478775 2.69544,-2.427637 -0.24854,-1.716164 -1.81808,-2.0862 -2.75533,-2.461094 v 0 c 0,0 -0.57981,-0.06938 -1.2467,-0.389003"
       sodipodi:nodetypes="cccssc" />
    <path
       id="rect39"
       style="fill:#ffffff;fill-opacity:1;stroke:#000000;stroke-width:1.23433;stroke-linecap:round;stroke-linejoin:round;stroke-dasharray:none;stroke-opacity:1;paint-order:stroke fill markers"
       d="m 58.380762,82.948261 c -6.347029,0 -11.457078,4.072683 -11.457078,9.131702 v 6.033 c 0,4.634647 4.28961,8.439067 9.889077,9.045147 l -2.295742,-0.93063 -2.867712,6.98352 12.22689,-5.99164 7.639671,0.0254 c 6.346974,0.021 11.456603,-4.07268 11.456603,-9.131695 v -6.033009 c 0,-5.059016 -5.109573,-9.131699 -11.456603,-9.131699 z"
       sodipodi:nodetypes="sssccccsssss" />
    <path
       style="fill:#000000;fill-opacity:1;stroke:#000000;stroke-width:1.0755;stroke-linecap:round;stroke-linejoin:round;stroke-dasharray:none;stroke-opacity:1;paint-order:stroke fill markers"
       id="path48"
       d="m 61.889695,91.585335 c 0.02953,-0.08053 0.04993,-0.16447 0.08868,-0.241721 0.133973,-0.267135 0.234649,-0.375894 0.449293,-0.598539 0.194816,-0.202089 0.389685,-0.377844 0.615497,-0.550989 0.107611,-0.08252 0.222162,-0.15713 0.33325,-0.235691 0.297825,-0.206124 0.613406,-0.389381 0.941912,-0.551576 0.08886,-0.04388 0.180244,-0.08334 0.269745,-0.12611 0.381096,-0.182139 0.109311,-0.06431 0.491494,-0.221304 0.307883,-0.100772 0.622079,-0.182176 0.951476,-0.18253 0.231711,-1.81e-4 0.275344,0.01428 0.501861,0.04689 0.227821,0.04499 0.451818,0.109277 0.663231,0.199783 0.06401,0.02741 0.249117,0.12221 0.187786,0.09008 -2.229853,-1.168243 -2.763092,-1.531204 -1.954441,-0.993268 0.08553,0.07684 0.18062,0.145678 0.256589,0.23051 0.27955,0.312158 0.46876,0.757015 0.564099,1.148775 0.01957,0.08044 0.02923,0.162556 0.04385,0.243824 0.03808,0.246299 0.04452,0.498655 -7.5e-4,0.744872 -0.01529,0.08288 -0.04122,0.163784 -0.06491,0.244971 -0.07338,0.25195 -0.08827,0.274122 -0.185799,0.52749 -0.148672,0.260553 -0.303461,0.523345 -0.507325,0.7524 -0.211953,0.238156 -0.472223,0.435189 -0.729059,0.6302 -0.269776,0.1965 -0.272024,0.205944 -0.557563,0.382754 -0.09017,0.05579 -0.184623,0.105789 -0.27437,0.162204 -0.08311,0.05227 -0.162742,0.108976 -0.243997,0.16363 -0.07151,0.04812 -0.148126,0.09049 -0.214298,0.144618 -0.06349,0.05191 -0.115264,0.114735 -0.172899,0.172107 -0.314308,0.318043 -0.398914,0.689865 -0.479164,1.096904 -0.0461,0.306027 0.04363,0.578903 0.118591,0.872336 0.02354,0.112388 0.05795,0.223142 0.07676,0.336397 0.01296,0.07764 0.01387,0.156489 0.01829,0.234769 0.01552,0.20125 0.06401,0.399592 0.101576,0.598196 0.02578,0.170365 0.0617,0.338789 0.117655,0.502997 0,0 2.569751,1.108577 2.569751,1.108577 v 0 c -0.05741,-0.163729 -0.146206,-0.318006 -0.179143,-0.489012 -0.02227,-0.131112 -0.04018,-0.266277 -0.03801,-0.399384 3.98e-4,-0.02672 0.006,-0.05317 0.0052,-0.07981 -3.97e-4,-0.02546 -0.0052,-0.05065 -0.0081,-0.07592 -0.03777,-0.220488 -0.09858,-0.438872 -0.174705,-0.650711 -0.04437,-0.132673 -0.07663,-0.26616 -0.11246,-0.40091 -0.01679,-0.06319 -0.05584,-0.201493 -0.06731,-0.265581 -0.0086,-0.04803 -0.01207,-0.09663 -0.01814,-0.144952 -0.0022,-0.136492 -0.0086,-0.197259 0.01402,-0.334446 0.04018,-0.243067 0.145883,-0.469116 0.299601,-0.66985 0.06709,-0.07439 0.227318,-0.25492 0.298394,-0.322295 0.300658,-0.285019 0.653847,-0.517685 1.001136,-0.751489 0.231479,-0.175908 0.318551,-0.230752 0.524199,-0.431939 0.07965,-0.07791 0.151932,-0.161923 0.227146,-0.243472 0.223211,-0.242019 0.443993,-0.48384 0.57008,-0.783818 0.118338,-0.208634 0.192299,-0.313276 0.264454,-0.537573 0.02788,-0.08667 0.04077,-0.176775 0.06071,-0.265239 0.02069,-0.09181 0.04887,-0.182526 0.0614,-0.275567 0.03021,-0.223981 0.0075,-0.321212 -0.01514,-0.544552 -0.06731,-0.227719 -0.09933,-0.352538 -0.186826,-0.57791 -0.148702,-0.382989 -0.356127,-0.745225 -0.484133,-1.134889 -0.822705,-0.745326 -0.177007,-0.183792 -2.621473,-1.447423 -0.05764,-0.02979 -0.123217,-0.04453 -0.186039,-0.06364 -0.210625,-0.06409 -0.427742,-0.105912 -0.649417,-0.120108 -0.08859,-0.0052 -0.177006,-0.01525 -0.265787,-0.0159 -0.321443,-0.0024 -0.752506,0.05177 -1.048689,0.168255 -0.07241,0.02847 -0.137833,0.0699 -0.20675,0.10485 -0.174248,0.08777 -0.31514,0.152829 -0.477949,0.258926 -0.07723,0.05032 -0.148891,0.107444 -0.222574,0.162025 -0.281544,0.208544 -0.555007,0.425849 -0.83269,0.638633 -0.206698,0.167164 -0.445267,0.357746 -0.646126,0.529947 -0.107813,0.09244 -0.212694,0.187708 -0.318738,0.281853 -0.10258,0.09107 -0.1981,0.189215 -0.307134,0.273788 -0.214621,0.166474 -0.378607,0.250009 -0.609621,0.380453 z" />
    <path
       style="fill:#000000;fill-opacity:1;stroke:#000000;stroke-width:1.0755;stroke-linecap:round;stroke-linejoin:round;stroke-dasharray:none;stroke-opacity:1;paint-order:stroke fill markers"
       id="path49"
       d="m 63.924979,100.12941 c -0.03014,0.14552 -0.05314,0.29243 -0.109986,0.43218 -0.07151,0.17587 -0.181969,0.3413 -0.282001,0.50428 -0.09095,0.15394 -0.199689,0.29802 -0.301002,0.44622 0,0 2.478691,1.26361 2.478691,1.26361 v 0 c 0.03253,-0.16947 0.08057,-0.33566 0.160951,-0.49215 0.140854,-0.29524 0.275464,-0.61026 0.576115,-0.8016 z" />
    <path
       style="fill:#000000;fill-opacity:1;stroke:#000000;stroke-width:1.34021;stroke-linecap:round;stroke-linejoin:round;stroke-dasharray:none;stroke-opacity:1;paint-order:stroke fill markers"
       id="path50"
       d="m 25.125348,60.337486 c -0.02894,0.341253 -0.04849,0.683474 -0.08683,1.023757 -0.267977,2.377959 -0.113326,0.335723 -0.378409,3.028223 -0.210272,2.135786 -0.30734,4.271689 -0.372716,6.416109 -0.104006,2.878187 0.07488,5.755759 0.402641,8.613567 0.06561,0.572116 0.10584,1.149313 0.220094,1.713403 0.120162,0.593257 0.320897,1.166484 0.481346,1.749726 0.219444,0.539946 0.402649,1.096777 0.658332,1.61984 1.002252,2.050364 2.521668,3.783414 4.25972,5.21193 0.381958,0.313935 0.790468,0.592618 1.1857,0.888929 2.012915,1.333287 1.393042,0.950022 4.658938,2.818615 0.91815,0.525323 1.900587,0.951484 2.904338,1.269229 0.628995,0.216858 1.278883,0.354641 1.937158,0.433373 0,0 -2.749585,-2.092371 -2.749585,-2.092371 v 0 c -0.610746,-0.08026 -1.212036,-0.213807 -1.798854,-0.406714 -0.642944,-0.215902 -1.257022,-0.46522 -1.868411,-0.764347 -0.27985,-0.136918 -1.087905,-0.605256 -0.832747,-0.424936 0.154075,0.108885 3.48672,2.116102 0.493761,0.274362 -0.412256,-0.294085 -0.837646,-0.569859 -1.23677,-0.882257 -1.766656,-1.382778 -3.307037,-3.083979 -4.351332,-5.10514 -0.265574,-0.514003 -0.460809,-1.062791 -0.691214,-1.594188 -0.160028,-0.570024 -0.347749,-1.132695 -0.48008,-1.710076 -0.250616,-1.093479 -0.442438,-2.649194 -0.562163,-3.744056 -0.240547,-2.199721 -0.349744,-4.408652 -0.258185,-6.622278 0.03634,-0.745602 0.0594,-1.492001 0.109037,-2.236806 0.17709,-2.657628 0.553589,-5.315836 1.318343,-7.867856 z" />
    <path
       style="fill:#000000;fill-opacity:1;stroke:#000000;stroke-width:1.34021;stroke-linecap:round;stroke-linejoin:round;stroke-dasharray:none;stroke-opacity:1;paint-order:stroke fill markers"
       id="path51"
       d="m 41.686502,94.552678 c -0.506304,-0.51169 -1.002039,-1.035162 -1.489536,-1.566019 -0.190539,-0.220181 -0.344569,-0.383838 -0.507703,-0.620534 -0.02326,-0.03375 -0.03198,-0.143554 -0.05558,-0.110039 -0.06522,0.09267 0.006,0.370568 -0.09751,0.327551 -1.544164,-0.641552 -3.805978,-2.259683 -2.316418,-1.209273 0.673765,0.562015 1.38493,1.120854 1.88373,1.858828 0.205327,0.39552 -0.08786,0.490962 -0.412691,0.683057 -0.291892,0.172604 -0.788404,0.430883 -1.073102,0.581955 -0.902421,0.450581 -1.803409,0.908204 -2.742696,1.273832 0,0 2.789804,1.901134 2.789804,1.901134 v 0 c 0.903289,-0.424111 1.775105,-0.915272 2.679196,-1.338481 0.506289,-0.233162 1.924229,-0.714691 1.957782,-1.416211 0.0045,-0.09467 -0.04618,-0.183608 -0.06928,-0.275413 -0.455555,-0.819893 -1.235724,-1.375089 -1.901559,-2.006832 -1.188629,-0.980308 -1.374025,-1.167026 -3.63528,-2.16049 -0.120242,-0.05283 -0.19623,0.197343 -0.226834,0.327282 -0.03073,0.130457 0.573754,0.768049 0.64071,0.864961 0.292942,0.322913 0.574745,0.656719 0.868992,0.978223 0.125213,0.136808 0.268856,0.25622 0.386023,0.400268 0.03406,0.04189 0.05729,0.09181 0.08593,0.137721 z" />
    <path
       style="fill:#000000;fill-opacity:1;stroke:#000000;stroke-width:1.34021;stroke-linecap:round;stroke-linejoin:round;stroke-dasharray:none;stroke-opacity:1;paint-order:stroke fill markers"
       id="path52"
       d="m 68.652432,27.619662 c 2.183207,-1.151265 4.604613,-1.689462 6.977142,-2.265891 3.710066,-0.896167 7.51406,-1.184875 11.310703,-1.362573 2.019926,-0.03556 4.043194,0.03477 6.036098,0.393742 0.891177,0.160526 1.487939,0.323465 2.359707,0.540338 1.449403,0.447906 2.893943,0.959023 4.247881,1.659869 0.377342,0.195327 1.487247,0.823575 1.108237,0.631636 -0.52129,-0.263993 -1.02363,-0.565324 -1.535441,-0.847984 1.355101,0.944627 2.624841,2.053455 3.624251,3.391106 0.14846,0.198712 0.27992,0.410093 0.41987,0.615137 0.57024,0.886024 1.05276,1.827066 1.46903,2.797322 0.18341,0.50781 0.10146,0.253997 0.24707,0.761033 0,0 3.05396,1.483185 3.05396,1.483185 v 0 c -0.14041,-0.538924 -0.0605,-0.269543 -0.24075,-0.807814 -0.41716,-1.025192 -0.96679,-1.984411 -1.55902,-2.914133 -0.41375,-0.607597 -0.50067,-0.768533 -0.99058,-1.343415 -0.93024,-1.091589 -2.0254,-2.035984 -3.18817,-2.857747 -0.6647,-0.403065 -3.428975,-2.150472 -4.795532,-2.843438 -1.37654,-0.698024 -2.831973,-1.219702 -4.312697,-1.632537 -1.027239,-0.233071 -1.248428,-0.302472 -2.30428,-0.462143 -1.972016,-0.298219 -3.968794,-0.353214 -5.958914,-0.265532 -3.799022,0.23143 -7.590426,0.622868 -11.320999,1.416603 -1.648354,0.372056 -3.309585,0.715276 -4.940628,1.162468 -0.883861,0.242333 -1.105763,0.355371 -1.934236,0.610117 -0.211508,0.06504 -0.425793,0.120251 -0.63869,0.180376 z" />
    <path
       style="fill:#000000;fill-opacity:1;stroke:#000000;stroke-width:1.34021;stroke-linecap:round;stroke-linejoin:round;stroke-dasharray:none;stroke-opacity:1;paint-order:stroke fill markers"
       id="path53"
       d="m 107.7639,36.058078 c -1.19829,-0.95411 -2.4458,-1.840767 -3.72478,-2.67776 -0.49147,-0.325478 -0.99393,-0.63573 -1.46535,-0.991773 -0.0836,-0.06315 -0.16538,-0.128962 -0.24462,-0.19774 -0.0357,-0.03097 -0.056,-0.08403 -0.0997,-0.101122 -0.0177,-0.007 -0.0126,0.03652 -0.0189,0.05477 0.0287,0.02486 0.052,0.05856 0.0862,0.07458 0.22039,0.103088 0.46234,0.151092 0.68602,0.246544 0.58775,0.250825 1.15376,0.554218 1.71394,0.862078 0.99521,0.606095 3.41418,1.939429 -1.18422,-0.689958 -0.14562,-0.08326 0.28328,0.180269 0.42524,0.269875 1.14775,0.724461 -0.38938,-0.249384 0.70091,0.44192 1.27774,0.816284 0.79639,0.513956 3.48142,2.060915 0.37162,0.214099 0.59767,0.146924 0.92464,-0.08873 0.0647,-0.07673 0.13364,-0.15002 0.19426,-0.230196 0.20752,-0.274489 0.21825,-0.345795 0.40988,-0.66852 0.26607,-0.448117 0.55114,-0.881217 0.81036,-1.333814 0.41785,-0.752113 0.83825,-1.50292 1.25888,-2.253643 0,0 -2.95575,-1.729099 -2.95575,-1.729099 v 0 c -0.37553,0.770896 -0.78874,1.521872 -1.19276,2.27736 -0.39873,0.696759 -0.83256,1.462205 -1.42276,2.005293 -0.17564,0.05092 -0.28858,0.03072 -0.45669,-0.04824 -0.0777,-0.03651 -0.30252,-0.163054 -0.22877,-0.118786 6.47451,3.886253 3.0693,1.825998 2.32557,1.375728 -1.83374,-1.198499 -3.74605,-2.270325 -5.64197,-3.362691 -0.58807,-0.307988 -1.18141,-0.633656 -1.80546,-0.861693 -0.22723,-0.08304 -0.633995,-0.222739 -0.900671,-0.152122 -0.104678,0.02773 -0.181698,0.119794 -0.272538,0.179689 -0.03696,0.09237 -0.112071,0.177327 -0.110993,0.277119 0.0018,0.181488 0.318653,0.392145 0.404948,0.457823 0.501527,0.38173 1.043814,0.703743 1.567914,1.050793 1.22436,0.774065 2.42975,1.587556 3.52697,2.543787 z" />
    <rect
       style="fill:#ffffff;fill-opacity:1;stroke:#000000;stroke-width:1.34021;stroke-linecap:round;stroke-linejoin:round;stroke-dasharray:none;stroke-opacity:1;paint-order:stroke fill markers"
       id="rect53"
       width="28.778563"
       height="27.622084"
       x="130.96469"
       y="97.098442"
       ry="6.8734384" />
    <text
       xml:space="preserve"
       style="font-size:22.6943px;text-align:start;writing-mode:lr-tb;direction:ltr;text-anchor:start;fill:#000000;fill-opacity:1;stroke:#000000;stroke-width:1.34021;stroke-linecap:round;stroke-linejoin:round;stroke-dasharray:none;stroke-opacity:1;paint-order:stroke fill markers"
       x="135.43008"
       y="117.51987"
       id="text53"
       transform="scale(0.98968712,1.0104203)"><tspan
         id="tspan53"
         style="font-size:22.6943px;fill:#000000;fill-opacity:1;stroke-width:1.34021"
         x="135.43008"
         y="117.51987"
         sodipodi:role="line">AI</tspan></text>
    <text
       xml:space="preserve"
       style="font-style:normal;font-variant:normal;font-weight:normal;font-stretch:normal;font-size:6.30398px;font-family:sans-serif;-inkscape-font-specification:'sans-serif, Normal';font-variant-ligatures:normal;font-variant-caps:normal;font-variant-numeric:normal;font-variant-east-asian:normal;text-align:center;writing-mode:lr-tb;direction:ltr;text-anchor:middle;fill:#ffffff;fill-opacity:1;stroke:#000000;stroke-width:1.34021;stroke-linecap:round;stroke-linejoin:round;stroke-dasharray:none;stroke-opacity:1;paint-order:stroke fill markers"
       x="110.71271"
       y="105.49441"
       id="text54"
       transform="scale(0.98968712,1.0104203)"><tspan
         sodipodi:role="line"
         id="tspan54"
         style="font-style:normal;font-variant:normal;font-weight:normal;font-stretch:normal;font-size:6.30398px;font-family:sans-serif;-inkscape-font-specification:'sans-serif, Normal';font-variant-ligatures:normal;font-variant-caps:normal;font-variant-numeric:normal;font-variant-east-asian:normal;text-align:center;text-anchor:middle;stroke-width:1.34021"
         x="110.71271"
         y="105.49441">MoE</tspan><tspan
         sodipodi:role="line"
         style="font-style:normal;font-variant:normal;font-weight:normal;font-stretch:normal;font-size:6.30398px;font-family:sans-serif;-inkscape-font-specification:'sans-serif, Normal';font-variant-ligatures:normal;font-variant-caps:normal;font-variant-numeric:normal;font-variant-east-asian:normal;text-align:center;text-anchor:middle;stroke-width:1.34021"
         x="110.71271"
         y="113.37438"
         id="tspan55">LMM de </tspan><tspan
         sodipodi:role="line"
         style="font-style:normal;font-variant:normal;font-weight:normal;font-stretch:normal;font-size:6.30398px;font-family:sans-serif;-inkscape-font-specification:'sans-serif, Normal';font-variant-ligatures:normal;font-variant-caps:normal;font-variant-numeric:normal;font-variant-east-asian:normal;text-align:center;text-anchor:middle;stroke-width:1.34021"
         x="110.71271"
         y="121.25436"
         id="tspan57">Deepseek</tspan></text>
    <text
       xml:space="preserve"
       style="font-style:normal;font-variant:normal;font-weight:normal;font-stretch:normal;font-size:6.30398px;font-family:sans-serif;-inkscape-font-specification:'sans-serif, Normal';font-variant-ligatures:normal;font-variant-caps:normal;font-variant-numeric:normal;font-variant-east-asian:normal;text-align:center;writing-mode:lr-tb;direction:ltr;text-anchor:middle;fill:#ffffff;fill-opacity:1;stroke:#000000;stroke-width:1.34021;stroke-linecap:round;stroke-linejoin:round;stroke-dasharray:none;stroke-opacity:1;paint-order:stroke fill markers"
       x="226.46358"
       y="31.515598"
       id="text54-2"
       transform="scale(0.98968716,1.0104203)"><tspan
         sodipodi:role="line"
         style="font-style:normal;font-variant:normal;font-weight:normal;font-stretch:normal;font-size:6.30398px;font-family:sans-serif;-inkscape-font-specification:'sans-serif, Normal';font-variant-ligatures:normal;font-variant-caps:normal;font-variant-numeric:normal;font-variant-east-asian:normal;text-align:center;text-anchor:middle;stroke-width:1.34021"
         x="226.46358"
         y="31.515598"
         id="tspan57-6">Firebase</tspan><tspan
         sodipodi:role="line"
         style="font-style:normal;font-variant:normal;font-weight:normal;font-stretch:normal;font-size:6.30398px;font-family:sans-serif;-inkscape-font-specification:'sans-serif, Normal';font-variant-ligatures:normal;font-variant-caps:normal;font-variant-numeric:normal;font-variant-east-asian:normal;text-align:center;text-anchor:middle;stroke-width:1.34021"
         x="226.46358"
         y="39.395573"
         id="tspan106">Firestore</tspan></text>
    <text
       xml:space="preserve"
       style="font-style:normal;font-variant:normal;font-weight:normal;font-stretch:normal;font-size:6.30398px;font-family:sans-serif;-inkscape-font-specification:'sans-serif, Normal';font-variant-ligatures:normal;font-variant-caps:normal;font-variant-numeric:normal;font-variant-east-asian:normal;text-align:center;writing-mode:lr-tb;direction:ltr;text-anchor:middle;fill:#ffffff;fill-opacity:1;stroke:#000000;stroke-width:1.34021;stroke-linecap:round;stroke-linejoin:round;stroke-dasharray:none;stroke-opacity:1;paint-order:stroke fill markers"
       x="258.68469"
       y="129.57091"
       id="text54-2-0"
       transform="scale(0.98968716,1.0104203)"><tspan
         sodipodi:role="line"
         style="font-style:normal;font-variant:normal;font-weight:normal;font-stretch:normal;font-size:6.30398px;font-family:sans-serif;-inkscape-font-specification:'sans-serif, Normal';font-variant-ligatures:normal;font-variant-caps:normal;font-variant-numeric:normal;font-variant-east-asian:normal;text-align:center;text-anchor:middle;stroke-width:1.34021"
         x="258.68469"
         y="129.57091"
         id="tspan57-6-0" /><tspan
         sodipodi:role="line"
         style="font-style:normal;font-variant:normal;font-weight:normal;font-stretch:normal;font-size:6.30398px;font-family:sans-serif;-inkscape-font-specification:'sans-serif, Normal';font-variant-ligatures:normal;font-variant-caps:normal;font-variant-numeric:normal;font-variant-east-asian:normal;text-align:center;text-anchor:middle;stroke-width:1.34021"
         x="258.68469"
         y="137.45088"
         id="tspan106-6">Azure</tspan><tspan
         sodipodi:role="line"
         style="font-style:normal;font-variant:normal;font-weight:normal;font-stretch:normal;font-size:6.30398px;font-family:sans-serif;-inkscape-font-specification:'sans-serif, Normal';font-variant-ligatures:normal;font-variant-caps:normal;font-variant-numeric:normal;font-variant-east-asian:normal;text-align:center;text-anchor:middle;stroke-width:1.34021"
         x="258.68469"
         y="145.33086"
         id="tspan108">RNN</tspan><tspan
         sodipodi:role="line"
         style="font-style:normal;font-variant:normal;font-weight:normal;font-stretch:normal;font-size:6.30398px;font-family:sans-serif;-inkscape-font-specification:'sans-serif, Normal';font-variant-ligatures:normal;font-variant-caps:normal;font-variant-numeric:normal;font-variant-east-asian:normal;text-align:center;text-anchor:middle;stroke-width:1.34021"
         x="258.68469"
         y="153.21083"
         id="tspan109">LSTM</tspan><tspan
         sodipodi:role="line"
         style="font-style:normal;font-variant:normal;font-weight:normal;font-stretch:normal;font-size:6.30398px;font-family:sans-serif;-inkscape-font-specification:'sans-serif, Normal';font-variant-ligatures:normal;font-variant-caps:normal;font-variant-numeric:normal;font-variant-east-asian:normal;text-align:center;text-anchor:middle;stroke-width:1.34021"
         x="258.68469"
         y="161.09081"
         id="tspan110">SVM / RF / XGB</tspan></text>
    <text
       xml:space="preserve"
       style="font-style:normal;font-variant:normal;font-weight:normal;font-stretch:normal;font-size:6.30398px;font-family:sans-serif;-inkscape-font-specification:'sans-serif, Normal';font-variant-ligatures:normal;font-variant-caps:normal;font-variant-numeric:normal;font-variant-east-asian:normal;text-align:center;writing-mode:lr-tb;direction:ltr;text-anchor:middle;fill:#ffffff;fill-opacity:1;stroke:#000000;stroke-width:1.34021;stroke-linecap:round;stroke-linejoin:round;stroke-dasharray:none;stroke-opacity:1;paint-order:stroke fill markers"
       x="50.953407"
       y="146.55623"
       id="text54-6"
       transform="scale(0.98968712,1.0104203)"><tspan
         sodipodi:role="line"
         style="font-style:normal;font-variant:normal;font-weight:normal;font-stretch:normal;font-size:6.30398px;font-family:sans-serif;-inkscape-font-specification:'sans-serif, Normal';font-variant-ligatures:normal;font-variant-caps:normal;font-variant-numeric:normal;font-variant-east-asian:normal;text-align:center;text-anchor:middle;stroke-width:1.34021"
         x="50.953407"
         y="146.55623"
         id="tspan57-2">Flask</tspan><tspan
         sodipodi:role="line"
         style="font-style:normal;font-variant:normal;font-weight:normal;font-stretch:normal;font-size:6.30398px;font-family:sans-serif;-inkscape-font-specification:'sans-serif, Normal';font-variant-ligatures:normal;font-variant-caps:normal;font-variant-numeric:normal;font-variant-east-asian:normal;text-align:center;text-anchor:middle;stroke-width:1.34021"
         x="50.953407"
         y="154.43619"
         id="tspan83">Chart.js y D3.js</tspan><tspan
         sodipodi:role="line"
         style="font-style:normal;font-variant:normal;font-weight:normal;font-stretch:normal;font-size:6.30398px;font-family:sans-serif;-inkscape-font-specification:'sans-serif, Normal';font-variant-ligatures:normal;font-variant-caps:normal;font-variant-numeric:normal;font-variant-east-asian:normal;text-align:center;text-anchor:middle;stroke-width:1.34021"
         x="50.953407"
         y="162.31618"
         id="tspan84">Python</tspan></text>
    <text
       xml:space="preserve"
       transform="scale(0.26458333)"
       id="text55"
       style="fill:#ffffff;text-align:center;writing-mode:lr-tb;text-orientation:auto;direction:ltr;fill-opacity:1;stroke:#000000;stroke-opacity:1;stroke-width:5.66929134;stroke-dasharray:none;paint-order:stroke fill markers;stroke-linejoin:round;stroke-linecap:round;font-size:26.66666667px;-inkscape-font-specification:'sans-serif, Normal';font-family:sans-serif;font-weight:normal;font-style:normal;font-stretch:normal;font-variant:normal;font-variant-ligatures:normal;font-variant-caps:normal;font-variant-numeric:normal;font-variant-east-asian:normal;white-space:pre;shape-inside:url(#rect55)" />
    <path
       style="fill:#000000;fill-opacity:1;stroke:#000000;stroke-width:1.34021;stroke-linecap:round;stroke-linejoin:round;stroke-dasharray:none;stroke-opacity:1;paint-order:stroke fill markers"
       id="path57"
       d="m 96.808901,87.388491 c 3.080168,-0.418369 6.200409,-0.431846 9.302949,-0.485502 3.17249,-0.02202 6.33835,0.132922 9.50061,0.373093 3.02575,0.402804 6.02881,0.973186 9.02422,1.564093 1.75914,0.391543 3.53974,0.719802 5.26345,1.261282 0.65876,0.206941 1.30974,0.469508 1.95402,0.718348 0.28403,0.137111 0.57315,0.263744 0.85209,0.411335 0.26351,0.139416 1.03213,0.598807 0.77411,0.44908 -3.39375,-1.969361 -2.4945,-1.50201 -1.52199,-0.835034 0.17267,0.118426 0.34063,0.243861 0.51095,0.365794 0,0 3.12518,1.258878 3.12518,1.258878 v 0 c -1.97397,-1.442033 -4.09015,-2.702875 -6.31097,-3.702039 -0.75072,-0.274123 -1.15294,-0.434276 -1.93014,-0.661422 -1.70074,-0.497061 -3.44949,-0.798498 -5.17895,-1.166929 -3.01476,-0.593948 -6.03389,-1.199354 -9.08507,-1.563122 -3.13838,-0.219082 -6.27936,-0.341282 -9.42621,-0.282809 -3.23006,0.06365 -6.460885,0.130926 -9.688407,0.278727 z" />
    <path
       style="fill:#000000;fill-opacity:1;stroke:#000000;stroke-width:1.34021;stroke-linecap:round;stroke-linejoin:round;stroke-dasharray:none;stroke-opacity:1;paint-order:stroke fill markers"
       id="path58"
       d="m 136.86962,93.32171 c -0.13871,-1.040381 -0.39138,-2.059624 -0.5581,-3.095808 -0.0547,0.741563 -0.0879,-0.753909 -0.0209,-0.57482 0.0355,0.09478 0.11007,0.344557 0.019,0.303792 -0.93792,-0.420063 -1.77378,-1.050134 -2.69688,-1.503108 -0.14767,-0.07246 0.23673,0.231445 0.35056,0.351751 0.12925,0.1366 0.25232,0.279159 0.37849,0.418738 0.27167,0.383784 1.18398,1.319063 0.98287,1.859309 -0.0261,0.06998 -0.0918,0.116818 -0.13764,0.175228 -0.0959,0.04151 -0.18742,0.09601 -0.2878,0.124518 -1.15928,0.329296 -2.67778,0.28273 -3.87853,0.300479 -0.7215,0.0081 -1.44294,-0.0038 -2.1643,-0.01593 0,0 2.72454,2.021592 2.72454,2.021592 v 0 c 0.7025,-0.0102 1.40499,-0.02085 2.10744,-0.03521 0.6511,-0.01724 1.14252,-0.02699 1.79582,-0.05778 0.73105,-0.0344 1.58796,-0.02293 2.28611,-0.297062 0.14276,-0.05606 0.25972,-0.165048 0.38958,-0.247571 0.072,-0.108804 0.16784,-0.204626 0.21581,-0.326412 0.31169,-0.791262 -0.5338,-1.579854 -0.91353,-2.164016 -1.34322,-1.528191 -0.80646,-1.22956 -3.91669,-2.775313 -0.11454,-0.05692 -0.24868,0.101077 -0.32507,0.205154 -0.11136,0.151732 0.0262,0.616391 0.0459,0.71797 0.17113,0.995813 0.42111,1.983867 0.48778,2.993873 z" />
    <path
       style="fill:#000000;fill-opacity:1;stroke:#000000;stroke-width:1.34021;stroke-linecap:round;stroke-linejoin:round;stroke-dasharray:none;stroke-opacity:1;paint-order:stroke fill markers"
       id="path60"
       d="m 132.3451,55.631324 c 3.48321,0.05603 6.91962,0.731514 10.30683,1.509395 2.0953,0.531765 4.10707,1.315565 6.02499,2.324733 0.61115,0.321578 1.23305,0.631153 1.80023,1.027909 0.27213,0.190356 -1.10041,-0.676418 -0.90735,-0.403332 0.38322,0.542079 1.01346,0.846815 1.5202,1.270225 2.31774,2.398157 3.89371,5.350513 4.8558,8.558017 0.1632,0.5441 0.28457,1.100372 0.42685,1.650558 0.37481,1.850409 0.65467,3.74143 0.62984,5.636811 -0.0133,1.011496 -0.078,1.306068 -0.20307,2.291063 -0.24112,1.65696 -0.77242,3.241714 -1.23883,4.840584 -0.04,0.151394 -0.0799,0.302789 -0.11987,0.454185 0,0 3.00081,1.651944 3.00081,1.651944 v 0 c 0.0307,-0.152889 0.0614,-0.305775 0.0921,-0.458664 0.38079,-1.650381 0.88599,-3.27289 1.12562,-4.954787 0.10645,-0.920071 0.1891,-1.416311 0.19134,-2.355283 0.004,-1.936515 -0.3133,-3.871842 -0.71017,-5.757824 -0.14891,-0.562167 -0.27586,-1.130881 -0.44673,-1.686502 -0.57447,-1.868074 -1.33915,-3.770794 -2.34556,-5.44225 -0.76541,-1.271214 -1.55028,-2.143002 -2.48588,-3.285678 -0.50223,-0.433801 -0.96085,-0.926529 -1.50669,-1.301399 -2.24831,-1.544048 -5.32605,-3.432188 -7.94823,-4.531805 -1.62981,-0.683462 -2.3925,-0.849765 -4.08765,-1.338932 -3.55733,-0.788828 -7.15011,-1.432074 -10.77705,-1.777747 z" />
    <path
       style="fill:#000000;fill-opacity:1;stroke:#000000;stroke-width:1.34021;stroke-linecap:round;stroke-linejoin:round;stroke-dasharray:none;stroke-opacity:1;paint-order:stroke fill markers"
       id="path61"
       d="m 158.29458,86.808674 c -0.452,-1.027672 -0.60726,-2.16255 -0.82387,-3.25962 -0.36504,-1.822055 -0.17736,-1.093305 -3.27412,-2.234353 -0.0942,-0.03469 0.10586,0.173731 0.15172,0.264576 0.0538,0.106454 0.0978,0.217721 0.14666,0.32658 0.32524,0.758398 0.49807,1.560478 0.65421,2.368148 0.50247,1.624018 2.22261,1.918825 3.74113,2.643715 0.10387,0.04958 0.60111,-0.208078 0.643,-0.227351 0.88554,-0.456811 1.7654,-0.935264 2.63715,-1.421531 0,0 -2.86391,-1.903363 -2.86391,-1.903363 v 0 c -0.84664,0.501695 -1.70492,1.002835 -2.62162,1.358373 -0.10693,0.02642 -0.21154,0.06582 -0.32076,0.07925 -0.0814,0.01001 -0.31419,-0.05543 -0.24563,-0.0096 0.89098,0.595384 1.82679,1.117711 2.74018,1.676568 -0.21013,-0.116111 -0.31906,-0.147866 -0.46951,-0.359067 -0.0682,-0.09574 -0.105,-0.211114 -0.15751,-0.316673 -0.18588,-0.811709 -0.29318,-1.642869 -0.61345,-2.418961 -0.0264,-0.07215 -0.22361,-0.612878 -0.22992,-0.616466 -4.24913,-2.417755 -3.44919,-2.538861 -2.95893,-0.709091 0.24896,1.089726 0.43045,2.194715 0.67566,3.285614 z" />
    <ellipse
       style="fill:#ffffff;fill-opacity:1;stroke:#000000;stroke-width:1.01907;stroke-linecap:round;stroke-linejoin:round;stroke-dasharray:none;stroke-opacity:1;paint-order:stroke fill markers"
       id="path62-7-2"
       cx="183.96196"
       cy="60.499302"
       rx="7.1164451"
       ry="4.5447054" />
    <ellipse
       style="fill:#ffffff;fill-opacity:1;stroke:#000000;stroke-width:1.01907;stroke-linecap:round;stroke-linejoin:round;stroke-dasharray:none;stroke-opacity:1;paint-order:stroke fill markers"
       id="path62-7-2-1"
       cx="184.03996"
       cy="57.136944"
       rx="7.1164451"
       ry="4.5447054" />
    <ellipse
       style="fill:#ffffff;fill-opacity:1;stroke:#000000;stroke-width:1.01907;stroke-linecap:round;stroke-linejoin:round;stroke-dasharray:none;stroke-opacity:1;paint-order:stroke fill markers"
       id="path62"
       cx="184.09132"
       cy="53.912384"
       rx="7.1164451"
       ry="4.5447054" />
    <ellipse
       style="fill:#ffffff;fill-opacity:1;stroke:#000000;stroke-width:1.01907;stroke-linecap:round;stroke-linejoin:round;stroke-dasharray:none;stroke-opacity:1;paint-order:stroke fill markers"
       id="path62-7"
       cx="184.11682"
       cy="50.347881"
       rx="7.1164451"
       ry="4.5447054" />
    <path
       style="fill:#ffffff;fill-opacity:1;stroke:#000000;stroke-width:0.962248;stroke-linecap:round;stroke-linejoin:round;stroke-dasharray:none;stroke-opacity:1;paint-order:stroke fill markers"
       id="path65"
       d="m 173.18064,41.494682 c 0.14423,0.045 0.0502,0.0076 0.23843,0.12453 0.96192,0.597709 -0.84853,-0.561599 -1.18928,-0.765174 -0.15085,-0.09012 0.28705,0.208142 0.4289,0.315052 0.1481,0.111626 0.29392,0.227009 0.44088,0.340514 0.6628,0.513324 1.27741,1.096704 1.88007,1.694185 0.21313,0.211351 0.42542,0.423325 0.62823,0.647107 0,0 2.1105,0.974169 2.1105,0.974169 v 0 c -0.23231,-0.245346 -0.47043,-0.482701 -0.7216,-0.70392 -0.65447,-0.62349 -1.32416,-1.227062 -2.02466,-1.784762 -0.0202,-0.01616 -0.75295,-0.60503 -0.79641,-0.634664 -0.71845,-0.489967 -1.44695,-0.961196 -2.17175,-1.439277 -0.22797,-0.150371 -0.45824,-0.30642 -0.71201,-0.39717 z" />
    <path
       style="fill:#ffffff;fill-opacity:1;stroke:#000000;stroke-width:0.962248;stroke-linecap:round;stroke-linejoin:round;stroke-dasharray:none;stroke-opacity:1;paint-order:stroke fill markers"
       id="path66"
       d="m 182.64188,39.063535 c 0.0795,0.542592 0.0858,1.095733 0.0883,1.644403 -0.0106,0.558471 0.002,1.116695 0.0238,1.674602 0.0104,0.193058 0.007,0.386442 0.0197,0.579299 0,0 2.12319,1.136778 2.12319,1.136778 v 0 c -0.079,-0.182183 -0.0863,-0.380916 -0.10792,-0.579911 -0.0683,-0.564227 -0.12718,-1.130294 -0.11527,-1.701135 0.002,-0.51464 0.004,-1.036216 0.0883,-1.543528 z" />
    <path
       style="fill:#ffffff;fill-opacity:1;stroke:#000000;stroke-width:0.962248;stroke-linecap:round;stroke-linejoin:round;stroke-dasharray:none;stroke-opacity:1;paint-order:stroke fill markers"
       id="path67"
       d="m 194.21674,39.933789 c -0.0429,0.19962 -0.009,0.0607 -0.0826,0.297409 -0.0249,0.07996 -0.0446,0.162123 -0.0732,0.240502 -0.0914,0.249959 -0.22058,0.4792 -0.35077,0.705002 -0.28953,0.50696 -0.67119,0.839039 -1.08654,1.202774 -0.42969,0.345959 -0.84938,0.707802 -1.24833,1.097381 -0.2756,0.291127 -0.55521,0.575623 -0.84843,0.843938 -0.0921,0.0651 -0.0484,0.04276 -0.12779,0.07497 0,0 2.01428,1.424445 2.01428,1.424445 v 0 c 0.0525,-0.08043 0.0217,-0.0359 0.0944,-0.131859 0.24487,-0.307866 0.48932,-0.61776 0.76676,-0.889788 0.38706,-0.391194 0.78538,-0.766785 1.21475,-1.099336 0.22368,-0.186771 0.43163,-0.377651 0.63318,-0.594027 0.1413,-0.151703 0.25845,-0.271512 0.37781,-0.445061 0.0493,-0.07161 0.0897,-0.150294 0.13457,-0.225441 0.0753,-0.13368 0.19882,-0.35002 0.26984,-0.486248 0.12456,-0.238975 0.22933,-0.493898 0.3888,-0.707806 z" />
    <path
       style="fill:#000000;fill-opacity:1;stroke:#000000;stroke-width:1.34021;stroke-linecap:round;stroke-linejoin:round;stroke-dasharray:none;stroke-opacity:1;paint-order:stroke fill markers"
       id="path68"
       d="m 126.48656,38.771745 c 0.53993,-0.894654 1.24477,-1.678968 1.95005,-2.439577 1.73773,-1.762891 3.83746,-3.101008 5.95945,-4.324563 1.60909,-0.883902 3.26598,-1.699898 4.95502,-2.415102 0.50066,-0.212 1.82749,-0.706978 2.34166,-0.900987 1.35476,-0.489943 2.74568,-0.86633 4.16869,-1.077819 0.74438,-0.110631 1.16406,-0.135239 1.90952,-0.199209 1.13147,-0.05053 2.26973,-0.122249 3.40319,-0.08997 0.42979,0.01223 1.06975,0.07742 1.50058,0.116887 1.26037,0.200604 2.49752,0.54142 3.72927,0.877043 0.91255,0.239656 1.82201,0.488187 2.73241,0.736237 0.45674,0.115535 0.9145,0.215639 1.36903,0.339011 0,0 -2.7404,-2.140419 -2.7404,-2.140419 v 0 c -0.4376,-0.106721 -0.8823,-0.180604 -1.3172,-0.299839 -0.89211,-0.222632 -1.77725,-0.471669 -2.6705,-0.689873 -1.22581,-0.318728 -2.45572,-0.654231 -3.71606,-0.792964 -1.62378,-0.112414 -3.24636,-0.0739 -4.86836,0.06856 -2.06144,0.213661 -4.1069,0.5977 -6.03092,1.413235 -2.49398,0.968743 -4.92716,2.086695 -7.27068,3.393397 -0.77369,0.459463 -1.69439,0.996111 -2.44846,1.485465 -0.37551,0.243686 -0.73848,0.506977 -1.10992,0.757087 -0.92328,0.621707 -1.85556,1.224794 -2.64777,2.023654 -0.77331,0.758097 -1.51747,1.54416 -2.21787,2.373134 z" />
    <path
       style="fill:#000000;fill-opacity:1;stroke:#000000;stroke-width:1.34021;stroke-linecap:round;stroke-linejoin:round;stroke-dasharray:none;stroke-opacity:1;paint-order:stroke fill markers"
       id="path69"
       d="m 161.27861,28.959589 c -0.37238,-0.670972 -0.7006,-1.36673 -1.05469,-2.048008 -0.0371,-0.07408 -0.0765,-0.147056 -0.11149,-0.222243 -0.23296,-0.50092 0.18971,0.324837 -0.15127,0.167958 -2.05869,-0.947177 -3.74889,-2.431902 -2.6267,-1.461632 0.58644,0.652305 1.06878,1.396223 1.48651,2.170065 0.20819,0.434111 0.40668,0.92028 -0.11432,1.181268 -0.70634,0.213268 -1.43431,0.316147 -2.16482,0.394461 0,0 2.75563,1.991308 2.75563,1.991308 v 0 c 0.77506,-0.114124 1.59155,-0.170947 2.31594,-0.484895 0.0699,-0.05632 0.14814,-0.10333 0.2098,-0.16896 0.39102,-0.416191 0.31557,-1.024156 0.0901,-1.500036 -0.42028,-0.778261 -0.91708,-1.507991 -1.41313,-2.237085 -0.87053,-1.149601 -0.52483,-0.748519 -3.28838,-2.09245 -0.17047,-0.0829 -0.31196,0.288187 -0.30208,0.402229 0.0111,0.128538 0.15146,0.351791 0.2035,0.446818 0.38609,0.625005 0.73026,1.292848 0.97586,1.987934 z" />
    <rect
       style="fill:#ffffff;fill-opacity:1;stroke:#000000;stroke-width:1.13822;stroke-linecap:round;stroke-linejoin:round;stroke-dasharray:none;stroke-opacity:1;paint-order:stroke fill markers"
       id="rect69"
       width="56.636909"
       height="44.068546"
       x="93.79631"
       y="134.23882"
       ry="5.7773643" />
    <rect
       style="fill:#000000;fill-opacity:1;stroke:#000000;stroke-width:1.13822;stroke-linecap:round;stroke-linejoin:round;stroke-dasharray:none;stroke-opacity:1;paint-order:stroke fill markers"
       id="rect70"
       width="56.151329"
       height="9.5156584"
       x="94.004272"
       y="133.94272"
       ry="4.7578297" />
    <rect
       style="fill:#ffffff;fill-opacity:1;stroke:#000000;stroke-width:1.52765;stroke-linecap:round;stroke-linejoin:round;stroke-dasharray:none;stroke-opacity:1;paint-order:stroke fill markers"
       id="rect71"
       width="18.066265"
       height="6.7211609"
       x="129.64647"
       y="135.28767"
       ry="1.7176312" />
    <ellipse
       style="fill:#ffffff;fill-opacity:1;stroke:#000000;stroke-width:1.13822;stroke-linecap:round;stroke-linejoin:round;stroke-dasharray:none;stroke-opacity:1;paint-order:stroke fill markers"
       id="path72"
       cx="124.06666"
       cy="138.70053"
       rx="2.9278162"
       ry="2.9801788" />
    <rect
       style="fill:#ffffff;fill-opacity:1;stroke:#000000;stroke-width:1.13822;stroke-linecap:round;stroke-linejoin:round;stroke-dasharray:none;stroke-opacity:1;paint-order:stroke fill markers"
       id="rect72"
       width="16.416683"
       height="2.5619082"
       x="97.559471"
       y="137.07974"
       ry="1.2809541" />
    <rect
       style="fill:#ffffff;fill-opacity:1;stroke:#000000;stroke-width:1.13822;stroke-linecap:round;stroke-linejoin:round;stroke-dasharray:none;stroke-opacity:1;paint-order:stroke fill markers"
       id="rect73"
       width="25.304695"
       height="16.207991"
       x="121.60938"
       y="147.53651"
       ry="1.2809541" />
    <rect
       style="fill:#ffffff;fill-opacity:1;stroke:#000000;stroke-width:1.13822;stroke-linecap:round;stroke-linejoin:round;stroke-dasharray:none;stroke-opacity:1;paint-order:stroke fill markers"
       id="rect74"
       width="4.8622665"
       height="3.0847466"
       x="140.74477"
       y="149.15732"
       ry="1.2809541" />
    <rect
       style="fill:#ffffff;fill-opacity:1;stroke:#000000;stroke-width:1.13822;stroke-linecap:round;stroke-linejoin:round;stroke-dasharray:none;stroke-opacity:1;paint-order:stroke fill markers"
       id="rect75"
       width="11.449853"
       height="0.26141921"
       x="125.94884"
       y="150.67354"
       ry="0.1307096" />
    <ellipse
       style="fill:#ffffff;fill-opacity:1;stroke:#000000;stroke-width:1.13822;stroke-linecap:round;stroke-linejoin:round;stroke-dasharray:none;stroke-opacity:1;paint-order:stroke fill markers"
       id="path76"
       cx="125.92268"
       cy="158.20241"
       rx="1.7514616"
       ry="1.7776505" />
    <ellipse
       style="fill:#ffffff;fill-opacity:1;stroke:#000000;stroke-width:1.13822;stroke-linecap:round;stroke-linejoin:round;stroke-dasharray:none;stroke-opacity:1;paint-order:stroke fill markers"
       id="path77"
       cx="133.3468"
       cy="158.28082"
       rx="1.8037442"
       ry="1.8037926" />
    <ellipse
       style="fill:#ffffff;fill-opacity:1;stroke:#000000;stroke-width:1.13822;stroke-linecap:round;stroke-linejoin:round;stroke-dasharray:none;stroke-opacity:1;paint-order:stroke fill markers"
       id="path78"
       cx="141.00618"
       cy="158.33311"
       rx="1.8821676"
       ry="2.0129275" />
    <rect
       style="fill:#ffffff;fill-opacity:1;stroke:#000000;stroke-width:1.13822;stroke-linecap:round;stroke-linejoin:round;stroke-dasharray:none;stroke-opacity:1;paint-order:stroke fill markers"
       id="rect78"
       width="18.455698"
       height="6.2217765"
       x="97.664024"
       y="147.06595"
       ry="0.13070959" />
    <rect
       style="fill:#ffffff;fill-opacity:1;stroke:#000000;stroke-width:1.13822;stroke-linecap:round;stroke-linejoin:round;stroke-dasharray:none;stroke-opacity:1;paint-order:stroke fill markers"
       id="rect79"
       width="18.612545"
       height="2.8233275"
       x="97.507179"
       y="156.42476"
       ry="0.13070959" />
    <rect
       style="fill:#ffffff;fill-opacity:1;stroke:#000000;stroke-width:1.13822;stroke-linecap:round;stroke-linejoin:round;stroke-dasharray:none;stroke-opacity:1;paint-order:stroke fill markers"
       id="rect80"
       width="18.769392"
       height="2.1436374"
       x="97.402618"
       y="161.70543"
       ry="0.13070959" />
    <rect
       style="fill:#ffffff;fill-opacity:1;stroke:#000000;stroke-width:1.13822;stroke-linecap:round;stroke-linejoin:round;stroke-dasharray:none;stroke-opacity:1;paint-order:stroke fill markers"
       id="rect81"
       width="7.3195405"
       height="7.4765887"
       x="120.14548"
       y="167.82263"
       ry="0.13070959" />
    <rect
       style="fill:#ffffff;fill-opacity:1;stroke:#000000;stroke-width:1.13822;stroke-linecap:round;stroke-linejoin:round;stroke-dasharray:none;stroke-opacity:1;paint-order:stroke fill markers"
       id="rect82"
       width="7.2672577"
       height="7.3720212"
       x="131.69991"
       y="167.77036"
       ry="0.13070959" />
    <rect
       style="fill:#ffffff;fill-opacity:1;stroke:#000000;stroke-width:1.13822;stroke-linecap:round;stroke-linejoin:round;stroke-dasharray:none;stroke-opacity:1;paint-order:stroke fill markers"
       id="rect83"
       width="3.5029233"
       height="7.1106019"
       x="142.94061"
       y="167.82263"
       ry="0.13070959" />
    <path
       style="fill:#000000;fill-opacity:1;stroke:#000000;stroke-width:1.34021;stroke-linecap:round;stroke-linejoin:round;stroke-dasharray:none;stroke-opacity:1;paint-order:stroke fill markers"
       id="path84"
       d="m 60.659498,118.74052 c 1.2631,2.20942 2.317651,4.53334 3.436076,6.82027 0.953146,1.95084 1.723072,4.00628 2.859449,5.8606 0.18938,0.30903 0.403501,0.60152 0.60525,0.90227 1.023385,1.25278 2.161059,2.43391 3.440601,3.41777 0.76007,0.58445 1.086518,0.74876 1.907108,1.24261 1.488935,0.85613 2.946019,1.89487 4.581959,2.47844 1.414154,0.50446 2.892719,0.68909 4.374343,0.83744 1.476063,0.12838 2.956771,0.17304 4.437233,0.20502 0,0 -2.64844,-1.96676 -2.64844,-1.96676 v 0 c -1.425443,0.0163 -2.853,0.007 -4.274068,-0.12271 -1.478525,-0.1698 -2.936161,-0.38109 -4.335813,-0.92533 -0.331856,-0.12905 -1.250942,-0.66561 -0.975843,-0.43635 0.520049,0.4334 1.150117,0.70721 1.725177,1.06082 -0.783659,-0.45287 -1.195607,-0.66228 -1.927823,-1.19947 -1.285658,-0.94321 -2.430516,-2.09004 -3.447076,-3.32417 -0.210135,-0.29566 -0.431128,-0.58358 -0.630407,-0.88698 -1.212028,-1.84527 -2.031734,-3.91736 -2.998515,-5.89749 -0.610488,-1.2781 -1.207026,-2.56266 -1.803397,-3.84768 -0.322231,-0.69432 -0.656177,-1.38327 -0.959936,-2.08622 -0.10177,-0.23551 -0.188116,-0.47766 -0.282175,-0.7165 z" />
    <path
       style="fill:#000000;fill-opacity:1;stroke:#000000;stroke-width:1.34021;stroke-linecap:round;stroke-linejoin:round;stroke-dasharray:none;stroke-opacity:1;paint-order:stroke fill markers"
       id="path85"
       d="m 88.194887,139.95341 c -0.250821,-0.65569 -0.52704,-1.29596 -0.884654,-1.89825 -0.25992,-0.3977 -0.548807,-0.77511 -0.852255,-1.13897 -0.0631,-0.0756 -0.130852,-0.1472 -0.194225,-0.22263 -0.02695,-0.032 -0.03855,-0.0832 -0.07665,-0.0998 -1.05225,-0.45688 -2.119816,-0.87609 -3.179726,-1.31413 0.06836,0.12511 0.131342,0.25345 0.205091,0.37534 0.226479,0.37431 0.478794,0.73178 0.709344,1.10349 0.322527,0.52001 0.60898,1.04822 0.874371,1.60021 0.158745,0.43935 0.55348,1.22051 0.393027,1.70217 -0.02919,0.0877 -0.08187,0.16516 -0.122815,0.24775 -0.580858,0.6782 -1.3372,1.16863 -2.017162,1.73622 -0.09134,0.0725 -0.182688,0.14501 -0.274031,0.21751 0,0 2.883942,1.8412 2.883942,1.8412 v 0 c 0.08527,-0.0778 0.170544,-0.15557 0.255815,-0.23335 0.689996,-0.62534 1.482373,-1.13171 2.107976,-1.82788 0.06291,-0.11095 0.142049,-0.21383 0.188724,-0.33284 0.237141,-0.60465 -0.183947,-1.39761 -0.386412,-1.95186 -0.504266,-1.00906 -1.09706,-1.9645 -1.658208,-2.94074 -1.076339,-0.49976 -2.156731,-0.9905 -3.229014,-1.49925 -0.05265,-0.025 0.118571,0.0158 0.16801,0.0469 0.479884,0.30172 0.766797,0.86847 1.114717,1.29788 0.345962,0.55806 0.64615,1.13701 0.819006,1.77818 z" />
    <ellipse
       style="fill:#ffffff;fill-opacity:1;stroke:#000000;stroke-width:1.30152;stroke-linecap:round;stroke-linejoin:round;stroke-dasharray:none;stroke-opacity:1;paint-order:stroke fill markers"
       id="path86"
       cx="202.28738"
       cy="110.30315"
       rx="12.181916"
       ry="5.1661673" />
    <ellipse
       style="fill:#000000;fill-opacity:1;stroke:#000000;stroke-width:1.5;stroke-linecap:round;stroke-linejoin:round;stroke-dasharray:none;stroke-opacity:1;paint-order:stroke fill markers"
       id="path87"
       cx="202.23079"
       cy="110.69274"
       rx="2.6526942"
       ry="2.5493426" />
    <rect
       style="fill:#ffffff;fill-opacity:1;stroke:#000000;stroke-width:1.98656;stroke-linecap:round;stroke-linejoin:round;stroke-dasharray:none;stroke-opacity:1;paint-order:stroke fill markers"
       id="rect88"
       width="15.460074"
       height="3.5762374"
       x="253.88016"
       y="-35.328434"
       ry="0.22351481"
       transform="matrix(0.84135712,0.54047959,-0.58850718,0.80849199,0,0)" />
    <path
       id="path88"
       style="fill:#ffffff;fill-opacity:1;stroke:#000000;stroke-width:2.29992;stroke-linecap:round;stroke-linejoin:round;stroke-dasharray:none;stroke-opacity:1;paint-order:stroke fill markers"
       d="m 229.03824,99.300918 a 7.3438799,7.4840084 57.401556 0 0 -7.01973,5.581052 7.3438799,7.4840084 57.401556 0 0 5.25188,8.9607 7.3438799,7.4840084 57.401556 0 0 9.12295,-5.36505 7.3438799,7.4840084 57.401556 0 0 -5.25187,-8.960694 7.3438799,7.4840084 57.401556 0 0 -2.10323,-0.216008 z m 0.23875,2.363682 a 4.9307356,5.2129056 24.489745 0 1 1.40456,0.13436 4.9307356,5.2129056 24.489745 0 1 3.4339,6.22287 4.9307356,5.2129056 24.489745 0 1 -6.1495,3.82613 4.9307356,5.2129056 24.489745 0 1 -3.4339,-6.22288 4.9307356,5.2129056 24.489745 0 1 4.74494,-3.96048 z" />
    <path
       style="fill:#ffffff;fill-opacity:1;stroke:#000000;stroke-width:1.02095;stroke-linecap:round;stroke-linejoin:round;stroke-dasharray:none;stroke-opacity:1;paint-order:stroke fill markers"
       d="m 192.465,100.4112 c 3.316,4.90259 3.316,4.90259 3.316,4.90259"
       id="path90" />
    <path
       style="fill:#ffffff;fill-opacity:1;stroke:#000000;stroke-width:1.03731;stroke-linecap:round;stroke-linejoin:round;stroke-dasharray:none;stroke-opacity:1;paint-order:stroke fill markers"
       d="m 202.03389,104.48859 c 0.0444,-5.674703 0.0444,-5.674703 0.0444,-5.674703"
       id="path91" />
    <path
       style="fill:#ffffff;fill-opacity:1;stroke:#000000;stroke-width:0.995688;stroke-linecap:round;stroke-linejoin:round;stroke-dasharray:none;stroke-opacity:1;paint-order:stroke fill markers"
       d="m 210.03417,105.39531 c 3.16278,-4.46427 3.16278,-4.46427 3.16278,-4.46427"
       id="path92" />
    <path
       id="path93"
       style="fill:none;fill-opacity:0;stroke:#000000;stroke-width:1.90081;stroke-linecap:round;stroke-linejoin:round;stroke-dasharray:none;stroke-opacity:1;paint-order:stroke fill markers"
       d="m 211.80957,144.50148 6.02965,7.37084 18.95564,-30.81046"
       sodipodi:nodetypes="ccc" />
    <path
       id="path97"
       style="fill:none;fill-opacity:0;stroke:#000000;stroke-width:1.90081;stroke-linecap:round;stroke-linejoin:round;stroke-dasharray:none;stroke-opacity:1;paint-order:stroke fill markers"
       d="m 204.14863,145.14595 3.69909,-5.48756 3.96185,4.84309" />
    <path
       id="path96"
       style="fill:none;fill-opacity:0;stroke:#000000;stroke-width:1.90081;stroke-linecap:round;stroke-linejoin:round;stroke-dasharray:none;stroke-opacity:1;paint-order:stroke fill markers"
       d="m 196.91237,155.32299 7.23626,-10.17704"
       sodipodi:nodetypes="cc" />
    <path
       style="fill:#ffffff;fill-opacity:1;stroke:#000000;stroke-width:1.90081;stroke-linecap:round;stroke-linejoin:round;stroke-dasharray:none;stroke-opacity:1;paint-order:stroke fill markers"
       d="m 203.58992,144.86801 0.23142,-18.09301 h 7.43048 l 0.77956,16.84135 -4.04412,-5.0974 z"
       id="path98"
       sodipodi:nodetypes="cccccc" />
    <path
       style="fill:#ffffff;fill-opacity:1;stroke:#000000;stroke-width:1.90081;stroke-linecap:round;stroke-linejoin:round;stroke-dasharray:none;stroke-opacity:1;paint-order:stroke fill markers"
       d="m 215.17256,147.08806 0.16878,-9.90786 3.876,0.0443 0.42152,9.32726 -1.98538,3.47451 z"
       id="path99"
       sodipodi:nodetypes="cccccc" />
    <path
       style="fill:#ffffff;fill-opacity:1;stroke:#000000;stroke-width:1.90081;stroke-linecap:round;stroke-linejoin:round;stroke-dasharray:none;stroke-opacity:1;paint-order:stroke fill markers"
       d="m 223.17949,142.00382 -0.25841,-20.22379 7.19215,-0.17701 0.2584,8.85068 z"
       id="path100" />
    <path
       style="fill:#000000;fill-opacity:1;stroke:#000000;stroke-width:1.5;stroke-linecap:round;stroke-linejoin:round;stroke-dasharray:none;stroke-opacity:1;paint-order:stroke fill markers"
       id="path101"
       d="m 155.93556,127.22198 c 1.53518,1.01471 2.95212,2.19188 4.43243,3.28204 0.3526,0.25967 0.71195,0.51004 1.06793,0.76506 1.87603,1.1362 3.7445,2.40928 5.90795,2.90926 0.82201,0.18997 2.2954,0.34826 3.12467,0.36604 0.56777,0.0122 1.13523,-0.0355 1.70285,-0.0532 0.58714,-0.0607 1.17864,-0.0883 1.76143,-0.18197 0.60848,-0.0978 1.20818,-0.24564 1.80693,-0.39166 1.00452,-0.24499 2.58611,-0.70091 3.56934,-1.04095 0.85634,-0.29615 2.23567,-0.86591 3.09125,-1.21204 1.65175,-0.72055 3.3031,-1.44379 4.92349,-2.23304 0,0 -2.98988,-1.90473 -2.98988,-1.90473 v 0 c -1.12497,1.15094 -2.44738,2.0855 -3.85101,2.86805 -0.43481,0.23048 -0.86076,0.47851 -1.30443,0.69144 -1.59158,0.76384 -3.27559,1.36941 -5.00359,1.73876 -1.57434,0.3365 -2.09474,0.32885 -3.67079,0.45631 -1.37401,-0.0251 -2.08658,0.0138 -3.43205,-0.20679 -0.54443,-0.0893 -1.08395,-0.21224 -1.61534,-0.36055 -0.47263,-0.1319 -0.92302,-0.62299 -1.39204,-0.47877 -0.34297,0.10546 1.22088,0.68579 0.86489,0.64087 -0.43576,-0.055 -0.75458,-0.44971 -1.13187,-0.67456 -0.35727,-0.25261 -0.71939,-0.49848 -1.07179,-0.75783 -0.7507,-0.55249 -1.22578,-0.938 -1.92728,-1.5366 -0.24421,-0.2084 -0.48866,-0.41686 -0.72328,-0.636 -0.15407,-0.1439 -0.29014,-0.30615 -0.442,-0.45237 -0.083,-0.0799 -0.17473,-0.15037 -0.26209,-0.22555 z" />
    <path
       style="fill:#000000;fill-opacity:1;stroke:#000000;stroke-width:1.5;stroke-linecap:round;stroke-linejoin:round;stroke-dasharray:none;stroke-opacity:1;paint-order:stroke fill markers"
       id="path102"
       d="m 184.55379,126.8832 c -0.0755,0.0204 -0.14972,0.0465 -0.22655,0.0612 -0.35465,0.0679 -0.61624,0.0808 -0.98668,0.10514 -0.76995,0.0507 -1.54147,0.0699 -2.31213,0.10751 -1.14875,-0.008 -2.30384,0.11114 -3.45064,0.007 -0.0599,-0.0246 -0.23518,-0.10675 -0.17959,-0.0736 1.10171,0.65616 2.23987,1.25222 3.31968,1.94382 0.0444,0.0284 -0.1031,0.15976 -0.0514,0.14945 0.10869,-0.0217 0.17191,-0.14279 0.27062,-0.19319 0.41852,-0.21367 0.90304,-0.33128 1.34619,-0.46455 1.7551,-0.44407 3.56601,-0.55641 5.36924,-0.56707 0.16879,0.007 0.33787,0.009 0.50639,0.0214 0.20592,0.0147 0.45912,0.0296 0.65099,0.1304 0.0625,0.0328 0.22301,0.17158 0.16134,0.13722 -3.12066,-1.7392 -3.82791,-2.77087 -3.02431,-1.64653 0.0251,0.0793 0.0603,0.1561 0.0752,0.23794 0.0935,0.51347 -0.005,0.99345 -0.13283,1.49207 -0.0536,0.2098 -0.10956,0.41941 -0.17999,0.62418 -0.0721,0.20949 -0.16463,0.41136 -0.24695,0.61704 -0.0904,0.20358 -0.18196,0.4066 -0.27105,0.61072 -0.0918,0.21027 -0.17654,0.42363 -0.27157,0.63245 -0.31107,0.68352 -0.67239,1.3375 -1.05011,1.98561 -0.0636,0.0975 -0.12711,0.19502 -0.19066,0.29252 0,0 3.14237,1.7745 3.14237,1.7745 v 0 c 0.0338,-0.11576 0.0676,-0.23153 0.10139,-0.3473 0.36884,-1.15873 0.87067,-2.25391 1.37699,-3.35769 0.0146,-0.0333 0.51931,-1.18052 0.53713,-1.22532 0.0866,-0.21771 0.27966,-0.80553 0.36114,-1.04029 0.0476,-0.13721 0.11259,-0.26914 0.14629,-0.41041 0.0219,-0.092 0.0128,-0.18875 0.0191,-0.28313 -0.009,-0.0806 0.0393,-0.19584 -0.0276,-0.24181 -1.08007,-0.74289 -2.21385,-1.40518 -3.3407,-2.07496 -0.0486,-0.0289 -0.11261,-0.0122 -0.16909,-0.0112 -0.30486,0.005 -0.60303,0.0911 -0.90225,0.13655 -1.68374,0.32117 -3.37348,0.61142 -5.07652,0.81162 -2e-4,2e-5 -1.69382,0.16937 -1.82168,0.18308 -0.18295,0.0196 -0.37687,-0.003 -0.54829,0.0637 -0.13621,0.0531 -0.45259,0.19233 -0.33654,0.28124 2.94089,2.25306 2.18268,2.58097 3.4475,1.97612 0.95603,-0.24333 1.94808,-0.30218 2.92787,-0.37723 1.38863,-0.0252 2.78736,-0.0156 4.16245,0.20163 z" />
    <path
       style="fill:#000000;fill-opacity:1;stroke:#000000;stroke-width:1.5;stroke-linecap:round;stroke-linejoin:round;stroke-dasharray:none;stroke-opacity:1;paint-order:stroke fill markers"
       id="path103"
       d="m 202.79884,156.75005 c -2.46747,2.05438 -5.01365,4.01097 -7.53434,5.99884 -1.98391,1.51222 -4.0484,2.91276 -6.27864,4.03891 -1.41118,0.71258 -1.89334,0.86962 -3.33734,1.4461 -2.11916,0.75105 -4.27915,1.41249 -6.48021,1.88039 -1.43654,0.30537 -1.91086,0.34653 -3.3739,0.55383 -0.57605,0.0566 -1.15134,0.1216 -1.72815,0.16981 -1.37392,0.11481 -2.17569,0.16197 -3.55704,0.151 -1.58188,-0.0126 -3.14829,-0.15286 -4.71924,-0.32163 -1.70168,-0.20249 -3.36984,-0.59135 -4.98819,-1.14827 -0.69776,-0.2362 -1.41566,-0.39293 -2.14519,-0.48795 -0.14113,-0.0327 -0.30191,-0.0178 -0.42745,-0.0983 0,0 3.16786,2.40933 3.16786,2.40933 v 0 c 0.12106,-0.0304 0.24818,0.0137 0.37007,0.0159 0.69755,0.10567 1.37771,0.2827 2.04996,0.4964 1.54594,0.44502 3.1349,0.7218 4.73768,0.86116 3.31229,0.26093 6.64442,0.31292 9.9453,-0.1387 0.5833,-0.0809 1.16908,-0.14552 1.7499,-0.24257 2.78637,-0.46553 5.50778,-1.2802 8.15224,-2.26117 0.53335,-0.23128 1.0725,-0.44961 1.60004,-0.69383 1.76156,-0.81549 3.44466,-1.75776 5.08589,-2.79223 0.54744,-0.34504 1.10085,-0.68202 1.62916,-1.05569 0.45776,-0.32377 0.88415,-0.68975 1.32622,-1.03462 2.55942,-2.0264 5.08985,-4.13066 7.96021,-5.71159 z" />
    <path
       style="fill:#000000;fill-opacity:1;stroke:#000000;stroke-width:1.5;stroke-linecap:round;stroke-linejoin:round;stroke-dasharray:none;stroke-opacity:1;paint-order:stroke fill markers"
       id="path104"
       d="m 156.91086,168.49625 c 0.35908,1.2427 0.94811,2.39513 1.4974,3.5605 0.40362,0.95965 0.98015,1.8484 1.36488,2.81565 0.26915,-1.35918 -0.0328,0.009 3.54623,1.49087 0.0722,0.0299 -0.0996,-0.12045 -0.14662,-0.18282 -0.0918,-0.12174 -0.39702,-0.55446 -0.45603,-0.64677 -0.0857,-0.13398 -0.16149,-0.27399 -0.24224,-0.41098 -0.51114,-0.91149 -0.97266,-1.84759 -1.27204,-2.85031 -0.15556,-0.71763 -0.32084,-1.43213 -0.57177,-2.12307 -0.13358,-0.4191 -0.3729,-0.84639 -0.3482,-1.29842 0.0935,0.089 0.37038,0.0704 0.52924,0.0719 0.91006,-0.24965 1.78435,-0.61105 2.66657,-0.94303 0.66383,-0.24238 1.3125,-0.51907 1.94521,-0.83314 0,0 -3.19435,-2.09865 -3.19435,-2.09865 v 0 c -0.60708,0.31661 -1.23137,0.59429 -1.87611,0.8265 -0.87604,0.31994 -1.77182,0.70338 -2.7146,0.7395 -0.37156,-0.002 -0.73038,0.0217 -0.86604,0.43211 -0.013,0.51727 0.14586,0.99974 0.34634,1.47324 0.27885,0.68538 0.49092,1.3966 0.63969,2.12173 0.0999,0.33786 0.18575,0.65365 0.3149,0.9829 0.26142,0.66646 0.61801,1.29587 0.92043,1.94343 0.411,0.7746 3.74258,6.7316 4.38185,2.87694 -0.22304,-0.23077 -0.12052,-0.1044 -0.34733,-0.47686 -0.4674,-0.76756 -0.86626,-1.57555 -1.25978,-2.38277 -0.52593,-1.09178 -1.10172,-2.18913 -1.3184,-3.39301 z" />
    <path
       style="fill:#000000;fill-opacity:1;stroke:#000000;stroke-width:1.5;stroke-linecap:round;stroke-linejoin:round;stroke-dasharray:none;stroke-opacity:1;paint-order:stroke fill markers"
       id="path105"
       d="m 203.85266,53.814918 c 1.96367,0.329581 3.90564,0.83457 5.78054,1.508385 0.59711,0.214595 1.18178,0.462343 1.77267,0.693515 0.6135,0.342307 1.27891,0.60483 1.84051,1.026927 0.21915,0.164711 -0.95298,-0.454673 -0.78791,-0.235799 0.48529,0.643448 1.23417,1.038651 1.81489,1.597477 0.98743,0.950191 2.13391,2.25329 2.95349,3.361405 0.4275,0.578 0.80292,1.192762 1.20437,1.789146 1.92758,3.07585 2.89243,6.588244 3.38292,10.156751 0.0817,0.594474 0.13062,1.192996 0.19593,1.789494 0.19375,2.21638 0.20074,4.445042 0.10058,6.666227 0,0 3.31711,1.692397 3.31711,1.692397 v 0 c -0.0751,-2.306913 -0.1799,-4.613693 -0.47549,-6.905183 -0.3854,-2.762663 -0.86235,-5.494793 -1.77427,-8.142031 -0.24589,-0.713825 -0.50603,-1.425083 -0.82514,-2.109322 -0.30345,-0.650655 -0.69238,-1.257914 -1.03856,-1.886871 -0.40052,-0.606737 -0.77093,-1.234458 -1.20156,-1.820211 -0.80228,-1.091295 -2.05584,-2.493807 -3.01125,-3.438044 -0.56682,-0.560191 -1.11303,-1.153437 -1.76212,-1.615802 -2.75584,-1.963055 -3.95942,-2.559513 -6.48683,-3.930351 -0.60078,-0.232005 -1.19676,-0.476882 -1.80236,-0.696013 -2.07416,-0.750514 -4.19886,-1.344829 -6.34483,-1.849091 z" />
    <path
       style="fill:#000000;fill-opacity:1;stroke:#000000;stroke-width:1.5;stroke-linecap:round;stroke-linejoin:round;stroke-dasharray:none;stroke-opacity:1;paint-order:stroke fill markers"
       id="path106"
       d="m 225.27524,85.073044 c -1.01531,-1.14478 -1.96474,-2.345311 -2.8992,-3.556285 -0.56738,-0.761077 -1.28043,-1.609717 -1.64132,-2.425766 0.007,0.05828 -0.006,0.122687 0.0204,0.174839 0.0371,0.072 0.1085,0.120314 0.16274,0.18047 -0.97461,-0.555734 -1.94187,-1.124543 -2.92382,-1.667201 -0.17678,-0.09769 0.34134,0.216257 0.50711,0.331647 0.43516,0.302922 0.66267,0.496404 1.08119,0.830636 0.82007,0.668822 1.65357,1.331899 2.33229,2.148927 0.1362,0.189296 0.27511,0.385003 0.33687,0.613574 0.009,0.03263 0.01,0.0669 0.0137,0.100471 5.3e-4,0.0053 -0.003,0.02053 -2.4e-4,0.01593 0.0612,-0.105455 0.11794,-0.213471 0.17692,-0.320209 4.11255,2.674731 2.63963,3.13949 3.57562,1.646523 0.0752,-0.120001 0.41238,-0.611042 0.46735,-0.691594 0.82613,-1.010288 1.64206,-2.028497 2.51928,-2.995557 0.49476,-0.48754 0.25773,-0.252997 0.71131,-0.703397 0,0 -3.26541,-1.985624 -3.26541,-1.985624 v 0 c -0.41265,0.477954 -0.19391,0.22756 -0.65718,0.750318 -0.85056,1.006804 -1.682,2.029212 -2.58533,2.989006 -1.67902,2.040073 -1.28124,1.053328 2.37073,3.461761 0.0697,-0.102304 0.15035,-0.197988 0.20922,-0.306911 0.12962,-0.239821 -0.20272,-0.874964 -0.3287,-1.059355 -0.6787,-0.883954 -1.56139,-1.573004 -2.42126,-2.272186 -0.42038,-0.355007 -1.00779,-0.897795 -1.47658,-1.177057 -1.22092,-0.727313 -2.44259,-1.454976 -3.69281,-2.13069 -0.0971,-0.0525 -0.22204,-0.07205 -0.3285,-0.04274 -0.10759,0.02962 -0.176,0.137244 -0.264,0.205864 -0.0259,0.09036 -0.0889,0.177723 -0.0778,0.271076 0.0141,0.119505 0.39219,0.706218 0.40857,0.730544 0.44608,0.662321 0.96674,1.270963 1.45295,1.90301 0.87351,1.129591 1.73008,2.271795 2.58458,3.415107 z" />
    <text
       xml:space="preserve"
       transform="scale(0.26458333)"
       id="text106"
       style="fill:#000000;text-align:center;writing-mode:lr-tb;text-orientation:auto;direction:ltr;fill-opacity:1;stroke:#000000;stroke-opacity:1;stroke-width:5.66929134;stroke-dasharray:none;paint-order:stroke fill markers;stroke-linejoin:round;stroke-linecap:round;font-size:26.66666667px;-inkscape-font-specification:'sans-serif, Normal';font-family:sans-serif;font-weight:normal;font-style:normal;font-stretch:normal;font-variant:normal;font-variant-ligatures:normal;font-variant-caps:normal;font-variant-numeric:normal;font-variant-east-asian:normal;white-space:pre;shape-inside:url(#rect106)" />
  </g>
</svg>
